<?xml version="1.0" encoding="UTF-8"?>
<svg id="Capa_1" data-name="Capa 1" xmlns="http://www.w3.org/2000/svg" viewBox="0 0 841.89 311.72">
  <defs>
    <style>
      .cls-1, .cls-2 {
        fill: #25c6a0;
      }

      .cls-1, .cls-2, .cls-3 {
        stroke-width: 0px;
      }

      .cls-2 {
        fill-rule: evenodd;
      }

      .cls-3 {
        fill: #001622;
      }
    </style>
  </defs>
  <path class="cls-1" d="M132.81,144.28h94.01s0,23.16,0,23.16h-94.01s0-23.16,0-23.16Z"/>
  <path class="cls-2" d="M186.35,203.22c-13.11,14.81-32.21,24.2-53.54,24.2-39.52,0-71.56-32.04-71.56-71.56s32.04-71.56,71.56-71.56c21.33,0,40.43,9.39,53.54,24.2h28.4c-16.38-28.28-46.9-47.36-81.94-47.36-52.31,0-94.72,42.41-94.72,94.72s42.41,94.72,94.72,94.72c35.04,0,65.56-19.08,81.94-47.36h-28.4Z"/>
  <path class="cls-3" d="M347.42,136.17c-2.44-4.69-5.82-8.24-10.16-10.63-4.34-2.39-9.35-3.59-15.04-3.59-6.23,0-11.78,1.4-16.66,4.2-4.88,2.8-8.69,6.78-11.45,11.92-2.76,5.15-4.13,11.11-4.13,17.88s1.37,12.76,4.13,17.95c2.75,5.19,6.57,9.19,11.45,11.99,4.87,2.8,10.43,4.2,16.66,4.2,8.4,0,15.21-2.35,20.45-7.04,5.23-4.69,8.44-12.88,9.62-20.92h-35.35v-12.33h51.88v12.06c-.99,7.31-3.59,15.87-7.79,22.01-4.2,6.14-9.66,11.04-16.39,14.7-6.73,3.66-14.2,5.49-22.42,5.49-8.85,0-16.93-2.05-24.25-6.16-7.31-4.11-13.12-9.82-17.4-17.14-4.29-7.31-6.43-15.57-6.43-24.78s2.14-17.47,6.43-24.79c4.29-7.31,10.11-13.02,17.47-17.13,7.36-4.11,15.42-6.16,24.18-6.16,10.02,0,18.94,2.46,26.75,7.38,7.81,4.92,13.48,11.89,17,20.92h-18.56Z"/>
  <path class="cls-3" d="M503.57,136.17c-2.44-4.69-5.82-8.24-10.16-10.63-4.34-2.39-9.35-3.59-15.04-3.59-6.23,0-11.78,1.4-16.66,4.2-4.88,2.8-8.69,6.78-11.45,11.92-2.76,5.15-4.13,11.11-4.13,17.88s1.37,12.76,4.13,17.95c2.75,5.19,6.57,9.19,11.45,11.99,4.87,2.8,10.43,4.2,16.66,4.2,8.4,0,15.21-2.35,20.45-7.04,5.23-4.69,8.44-12.88,9.62-20.92h-35.35v-12.33h51.88v12.06c-.99,7.31-3.59,15.87-7.79,22.01-4.2,6.14-9.66,11.04-16.39,14.7-6.73,3.66-14.2,5.49-22.42,5.49-8.85,0-16.93-2.05-24.25-6.16-7.31-4.11-13.12-9.82-17.4-17.14-4.29-7.31-6.43-15.57-6.43-24.78s2.14-17.47,6.43-24.79c4.29-7.31,10.11-13.02,17.47-17.13,7.36-4.11,15.42-6.16,24.18-6.16,10.02,0,18.94,2.46,26.75,7.38,7.81,4.92,13.48,11.89,17,20.92h-18.56Z"/>
  <path class="cls-3" d="M407.43,108.5v94.72h-15.44v-94.72h15.44Z"/>
  <path class="cls-3" d="M686.23,108.5v94.72h-15.44v-94.72h15.44Z"/>
  <path class="cls-3" d="M803.8,108.5v13.18h-39.42v81.54h-15.44v-81.54h-39.55v-13.18h94.41Z"/>
  <polygon class="cls-3" points="627.94 203.22 590.48 108.5 590.44 108.5 590.44 108.5 570.61 108.5 533.14 203.22 549.73 203.22 580.54 125.75 611.35 203.22 627.94 203.22"/>
</svg>